<svg width="48" height="33" viewBox="0 0 48 33" fill="none" xmlns="http://www.w3.org/2000/svg">
<path d="M0 25.1059C0 16.7373 1.57068 10.5686 4.71204 6.6C8.23037 2.2 13.9686 0 21.9267 0V10.3529C16.6492 10.3529 13.5497 13.1569 12.6283 18.7647C12.2932 20.5765 12.1257 22.6902 12.1257 25.1059V33H0V25.1059ZM26.0733 25.1059C26.0733 16.7373 27.644 10.5686 30.7853 6.6C34.3037 2.2 40.0419 0 48 0V10.3529C42.7225 10.3529 39.623 13.1569 38.7016 18.7647C38.3665 20.5765 38.199 22.6902 38.199 25.1059V33H26.0733V25.1059Z" fill="#9AE600"/>
</svg>
