<svg width="20" height="20" viewBox="0 0 20 20" fill="none" xmlns="http://www.w3.org/2000/svg">
<path d="M10.0005 6.46973C9.06281 6.46973 8.16349 6.84162 7.50042 7.50358C6.83735 8.16555 6.46484 9.06336 6.46484 9.99952C6.46484 10.9357 6.83735 11.8335 7.50042 12.4955C8.16349 13.1574 9.06281 13.5293 10.0005 13.5293C10.9383 13.5293 11.8376 13.1574 12.5006 12.4955C13.1637 11.8335 13.5362 10.9357 13.5362 9.99952C13.5362 9.06336 13.1637 8.16555 12.5006 7.50358C11.8376 6.84162 10.9383 6.46973 10.0005 6.46973Z" fill="#102025"/>
<path fill-rule="evenodd" clip-rule="evenodd" d="M4.31029 0.313667C8.09189 -0.104556 11.9082 -0.104556 15.6898 0.313667C17.7557 0.543918 19.4213 2.16762 19.6639 4.23771C20.112 8.06583 20.112 11.933 19.6639 15.7611C19.4213 17.8312 17.7557 19.4549 15.6909 19.6863C11.9089 20.1046 8.09224 20.1046 4.31029 19.6863C2.24436 19.4549 0.57878 17.8312 0.336177 15.7622C-0.112059 11.9338 -0.112059 8.06619 0.336177 4.23771C0.57878 2.16762 2.24436 0.543918 4.31029 0.313667ZM15.4396 3.48288C15.151 3.48288 14.8743 3.59731 14.6703 3.80099C14.4663 4.00467 14.3516 4.28092 14.3516 4.56897C14.3516 4.85702 14.4663 5.13327 14.6703 5.33695C14.8743 5.54064 15.151 5.65506 15.4396 5.65506C15.7281 5.65506 16.0048 5.54064 16.2088 5.33695C16.4128 5.13327 16.5275 4.85702 16.5275 4.56897C16.5275 4.28092 16.4128 4.00467 16.2088 3.80099C16.0048 3.59731 15.7281 3.48288 15.4396 3.48288ZM4.83249 9.99943C4.83249 8.63119 5.37692 7.319 6.34603 6.35151C7.31513 5.38402 8.62951 4.84049 10 4.84049C11.3706 4.84049 12.6849 5.38402 13.654 6.35151C14.6231 7.319 15.1676 8.63119 15.1676 9.99943C15.1676 11.3677 14.6231 12.6799 13.654 13.6473C12.6849 14.6148 11.3706 15.1584 10 15.1584C8.62951 15.1584 7.31513 14.6148 6.34603 13.6473C5.37692 12.6799 4.83249 11.3677 4.83249 9.99943Z" fill="#102025"/>
</svg>
