<svg width="703" height="11" viewBox="0 0 703 11" fill="none" xmlns="http://www.w3.org/2000/svg">
<path d="M-0.00130224 5.33301C-0.00130224 8.27853 2.38651 10.6663 5.33203 10.6663C8.27755 10.6663 10.6654 8.27853 10.6654 5.33301C10.6654 2.38749 8.27755 -0.00032568 5.33203 -0.00032568C2.38651 -0.00032568 -0.00130224 2.38749 -0.00130224 5.33301ZM691.999 5.33301C691.999 8.27853 694.387 10.6663 697.332 10.6663C700.278 10.6663 702.665 8.27853 702.665 5.33301C702.665 2.38749 700.278 -0.00032568 697.332 -0.00032568C694.387 -0.00032568 691.999 2.38749 691.999 5.33301ZM5.33203 5.33301V6.33301L697.332 6.33301V5.33301V4.33301L5.33203 4.33301V5.33301Z" fill="#3B5445"/>
</svg>
